<svg version="1" xmlns="http://www.w3.org/2000/svg" width="1066.667" height="1066.667" viewBox="0 0 800.000000 800.000000"><path d="M423 168.7c-10.7 3.5-21.1 6.5-23 6.7l-3.5.2v50.9l-14.9.5-14.9.5-.1 10.5-.1 10.5h-86l-.2 19.5c-.1 10.7-.2 20.4-.2 21.5-.1 2-.8 2-31.6 2H217l-.1-3c0-1.6-.1-6.4-.2-10.5l-.2-7.5-42.8-.1c-23.5-.1-43-.4-43.4-.7-.3-.4-.5-5.1-.5-10.7 0-7.9-.3-10-1.4-10.1-.8 0-23.9-.1-51.4-.1s-51.3.1-53 .1l-2.9.1v175.7c0 96.7 0 179.2-.1 183.3v7.6l-10.5-.1-10.5-.1v22.4l399.5-.1c389.1 0 399.5 0 399.6-1.8 0-1.1.1-4.8.1-8.4 0-3.6-.1-7.8-.1-9.3l-.1-2.8-9.7.1c-5.4.1-10.3 0-10.8-.2-.7-.2-1-58.7-1-183.3.1-128.7-.2-183-.9-183-1.6-.1-102.6-.1-105.4-.1-2.2.1-2.3.3-2.1 9.7.1 5.2-.1 9.7-.4 10-.3.3-20.1.5-44.1.6H581l-.1 2.7v11.3l.1 8.8h-60.7l.1-20.6c.1-11.3-.2-21-.5-21.6-.4-.6-16.8-1-44-1.1l-43.4-.2-.2-9c0-5-.1-9.8-.2-10.8-.1-1.5-1.5-1.7-15.1-1.7h-15v-10.4c0-10 .1-10.5 2.3-11.1 1.2-.4 10.5-3.4 20.7-6.7l18.6-6.1-.1-14.8c0-8.1-.2-14.9-.5-15.2-.3-.2-9.3 2.5-20 6zM63.6 314.2c.9 1.5.9 234.1 0 235.6-.4.7-4.3 1.1-10.6 1H43V313.3l9.9-.1c6.6-.1 10.2.2 10.7 1zM108 432.1v118.8H97l-11-.1V313.2h22v118.9zm603.7-117.7c.5.4.8 226.1.4 234.8-.1 1.6-1.3 1.8-10.6 1.8H691V432.7c0-65.1.2-118.6.4-118.8.6-.6 19.7-.1 20.3.5zm41.3-.4h2.5l-.2 111.7c-.1 61.5-.2 114.8-.3 118.5v6.8H734.3V432.7c0-65 .3-118.4.7-118.7.5-.3 4.1-.4 8.2-.3 4 .1 8.4.2 9.8.3zm-602 26.2c.1 8.2.1 235.2 0 245v8.8h-10.5c-5.8 0-10.5-.3-10.6-.8-.1-1-.1-253.2 0-256 .1-2.1.4-2.2 10.6-2.2H151v5.2zm42.7 124.3l.1 129.5H173V335H193.7v129.5zm43.3-43v86.2l-10.7-.1-10.8-.1-.1-85.5c0-47 .1-85.8.3-86.2.2-.4 5.1-.7 10.8-.6l10.5.2v86.1zm43.1-84.1c0 1.2.1 39.9.2 86.2l.2 84.1h-10.7c-9.8 0-10.8-.2-10.8-1.9-.1-1-.1-37.1-.1-80.3 0-43.2 0-81.2.1-84.5v-6.1l10.5.2c9.9.2 10.5.4 10.6 2.3zm43.5 127.3l.1 129.3H302V334.9l10.8.3 10.7.3.1 129.2zm43.4-43.4v86.3l-10.5.1c-5.8 0-10.6-.2-10.6-.6-.4-1.8-.5-169.8-.1-170.9.3-.8 3.4-1.2 10.8-1.2H367v86.3zm43.1-83.9c.1 2.6.1 164.1 0 167.7l-.1 2.6h-10c-5.5 0-10.3-.4-10.6-.9-.7-1.1-.7-169.5 0-170.7.3-.5 5.1-.9 10.6-.9 9.5 0 10 .1 10.1 2.2zm42.9 84.1v86.2h-21V335.2h10.5l10.5.1v86.2zm43.1-84c.1 2.6.1 250.1 0 253.7l-.1 2.8h-21v-3.3c-.4-22.5-.1-253.8.3-254.4.3-.4 5.1-.8 10.6-.8 9.4 0 10.1.1 10.2 2zm43.6 84.1v86.1l-10.6-.1-10.6-.1-.1-86-.1-86h21.4v86.1zm43.1 0l.2 86-10.5.1c-5.8 0-10.6-.2-10.6-.6-.3-1.5-.5-169.7-.2-170.6.2-.6 4.4-1 10.6-1l10.2.1.3 86zm43 43.2L626 594h-10.5c-10.2 0-10.5-.1-10.5-2.3-.1-1.2-.1-59.1-.1-128.6-.1-89.5.3-126.6 1-127 .6-.4 5.3-.7 10.3-.6l9.3.1.3 129.2zm43.2-.3V594h-21V335h21v129.5zm-432 97V594h-21.5l.1-32.3c.1-17.7.2-32.3.3-32.4 0-.1 4.8-.2 10.6-.2l10.5-.1v32.5zm43.1-30.7c.1 2.2.1 61.4 0 62.4-.1.5-4.8.8-10.6.8-10.2 0-10.5-.1-10.6-2.3-.1-2.7-.1-58.6 0-60.8.1-1.4 1.7-1.6 10.6-1.8 9.3-.1 10.5.1 10.6 1.7zM367 562v32.1l-10.7-.3-10.8-.3V530H367v32zm86 0v32h-21v-64h21v32zm86.7 0v32h-21.4v-32l-.1-32h21.5v32zm43.3 0v32.1l-10.7-.3-10.8-.3V530H583v32zm-478.7 11h3.7v21H43v-20.9l4.3-.3c3.4-.2 25.2-.2 57 .2zm650.9 5.7c.1 3.2.2 7.9 0 10.5l-.3 4.8H691v-21h63.8l.4 5.7z"/></svg>